<svg width="65" height="65" viewBox="0 0 65 65" fill="none" xmlns="http://www.w3.org/2000/svg">
<g clip-path="url(#clip0_10_257)">
<path d="M32.5 60.9375C26.8756 60.9375 21.3775 59.2697 16.701 56.1449C12.0245 53.0202 8.37956 48.5788 6.22719 43.3826C4.07482 38.1863 3.51166 32.4685 4.60893 26.9521C5.7062 21.4358 8.41461 16.3687 12.3917 12.3916C16.3687 8.41459 21.4358 5.70618 26.9521 4.60892C32.4685 3.51165 38.1863 4.07481 43.3826 6.22717C48.5788 8.37954 53.0202 12.0244 56.1449 16.701C59.2697 21.3775 60.9375 26.8756 60.9375 32.5C60.9375 40.0421 57.9414 47.2753 52.6084 52.6083C47.2753 57.9414 40.0421 60.9375 32.5 60.9375ZM32.5 8.125C27.6791 8.125 22.9664 9.55457 18.958 12.2329C14.9495 14.9113 11.8253 18.7181 9.98045 23.1721C8.13556 27.626 7.65286 32.527 8.59337 37.2553C9.53389 41.9836 11.8554 46.3268 15.2643 49.7357C18.6732 53.1446 23.0164 55.4661 27.7447 56.4066C32.473 57.3471 37.374 56.8644 41.8279 55.0196C46.2819 53.1747 50.0887 50.0505 52.7671 46.042C55.4454 42.0336 56.875 37.3209 56.875 32.5C56.875 26.0353 54.3069 19.8355 49.7357 15.2643C45.1645 10.6931 38.9647 8.125 32.5 8.125Z" fill="#3DA9FC" fill-opacity="0.4"/>
<path d="M41.8234 44.6875L30.4688 33.3328V14.2188H34.5312V31.6469L44.6875 41.8234L41.8234 44.6875Z" fill="#3DA9FC" fill-opacity="0.4"/>
</g>
<defs>
<clipPath id="clip0_10_257">
<rect width="65" height="65" fill="white"/>
</clipPath>
</defs>
</svg>
