<svg width="65" height="65" viewBox="0 0 65 65" fill="none" xmlns="http://www.w3.org/2000/svg">
<path d="M32.5 4.0625C26.5762 4.06949 20.8971 6.4258 16.7083 10.6146C12.5195 14.8033 10.1632 20.4825 10.1563 26.4062C10.1492 31.2472 11.7304 35.9567 14.6575 39.8125C14.6575 39.8125 15.2669 40.6148 15.3664 40.7306L32.5 60.9375L49.6417 40.7205C49.7311 40.6128 50.3425 39.8125 50.3425 39.8125L50.3445 39.8064C53.2701 35.9523 54.8507 31.245 54.8438 26.4062C54.8368 20.4825 52.4804 14.8033 48.2917 10.6146C44.1029 6.4258 38.4238 4.06949 32.5 4.0625ZM41.0516 27.8322L32.5061 36.5625L23.9484 27.8322C22.9209 26.7713 22.3464 25.3523 22.3464 23.8753C22.3464 22.3984 22.9209 20.9794 23.9484 19.9184C24.4523 19.4005 25.0549 18.9889 25.7206 18.7078C26.3862 18.4267 27.1015 18.2818 27.8241 18.2818C28.5466 18.2818 29.2619 18.4267 29.9276 18.7078C30.5932 18.9889 31.1958 19.4005 31.6997 19.9184L32.5061 20.7411L33.3044 19.9184C33.8083 19.4005 34.4108 18.9889 35.0765 18.7078C35.7422 18.4267 36.4574 18.2818 37.18 18.2818C37.9026 18.2818 38.6178 18.4267 39.2835 18.7078C39.9492 18.9889 40.5517 19.4005 41.0556 19.9184C42.0832 20.9794 42.6577 22.3984 42.6577 23.8753C42.6577 25.3523 42.0832 26.7713 41.0556 27.8322H41.0516Z" fill="#3DA9FC" fill-opacity="0.4"/>
</svg>
