<svg width="33" height="32" viewBox="0 0 33 32" fill="none" xmlns="http://www.w3.org/2000/svg">
<path d="M26.4998 29H26.3298C6.67976 27.87 3.88976 11.29 3.49976 6.23C3.46833 5.83658 3.51485 5.44082 3.63663 5.06541C3.75842 4.69 3.95309 4.3423 4.20948 4.04225C4.46587 3.7422 4.77894 3.49569 5.13077 3.31684C5.48259 3.13799 5.86625 3.03032 6.25976 3H11.7698C12.1703 2.99961 12.5618 3.11951 12.8934 3.34416C13.225 3.56881 13.4816 3.88787 13.6298 4.26L15.1498 8C15.2961 8.36355 15.3324 8.76208 15.2542 9.14609C15.176 9.5301 14.9867 9.88267 14.7098 10.16L12.5798 12.31C12.9125 14.2007 13.8179 15.9437 15.1737 17.303C16.5294 18.6622 18.2699 19.5723 20.1598 19.91L22.3298 17.76C22.6113 17.4862 22.9671 17.3013 23.353 17.2283C23.7389 17.1554 24.1378 17.1977 24.4998 17.35L28.2698 18.86C28.6363 19.0129 28.949 19.2714 29.168 19.6027C29.3871 19.9339 29.5026 20.3229 29.4998 20.72V26C29.4998 26.7956 29.1837 27.5587 28.6211 28.1213C28.0585 28.6839 27.2954 29 26.4998 29ZM6.49976 5C6.23454 5 5.98019 5.10536 5.79265 5.29289C5.60512 5.48043 5.49976 5.73478 5.49976 6V6.08C5.95976 12 8.90976 26 26.4398 27C26.5711 27.0081 26.7028 26.9902 26.8273 26.9473C26.9517 26.9045 27.0665 26.8374 27.1649 26.7501C27.2634 26.6628 27.3437 26.5568 27.4011 26.4384C27.4586 26.32 27.4921 26.1914 27.4998 26.06V20.72L23.7298 19.21L20.8598 22.06L20.3798 22C11.6798 20.91 10.4998 12.21 10.4998 12.12L10.4398 11.64L13.2798 8.77L11.7798 5H6.49976Z" fill="#3DA9FC"/>
</svg>
